<svg width="6" height="10" viewBox="0 0 6 10" fill="none" xmlns="http://www.w3.org/2000/svg">
<path d="M3.7966 0H1.26553C0.913954 0 0.615174 0.132591 0.369054 0.397697C0.123049 0.662853 0 0.984802 0 1.36367V4.0909C0 4.46974 0.122979 4.79164 0.369054 5.05675C0.615151 5.32183 0.914023 5.45447 1.26553 5.45447H2.74196C2.91766 5.45447 3.0671 5.52079 3.19015 5.65333C3.3132 5.7858 3.3747 5.94687 3.3747 6.13635V6.3635C3.3747 6.86543 3.20989 7.2938 2.88036 7.64898C2.5508 8.00399 2.15317 8.18156 1.68731 8.18156H1.26553C1.15121 8.18156 1.05238 8.22666 0.968853 8.31656C0.885397 8.40647 0.843634 8.51303 0.843634 8.63615V9.54535C0.843634 9.66826 0.885397 9.77503 0.968853 9.86496C1.05245 9.95484 1.15119 9.99996 1.26553 9.99996H1.68734C2.14437 9.99996 2.58049 9.90394 2.99576 9.71224C3.41101 9.52052 3.77021 9.26121 4.07342 8.93449C4.37656 8.60774 4.61717 8.22076 4.79511 7.77329C4.97304 7.32584 5.06204 6.85593 5.06204 6.36353V1.36357C5.06204 0.984703 4.93899 0.662779 4.69296 0.397672C4.44693 0.132566 4.14808 0 3.7966 0Z" fill="#F6762C"/>
</svg>
